<!DOCTYPE svg PUBLIC "-//W3C//DTD SVG 1.1//EN" "http://www.w3.org/Graphics/SVG/1.1/DTD/svg11.dtd">

<!-- Uploaded to: SVG Repo, www.svgrepo.com, Transformed by: SVG Repo Mixer Tools -->
<svg width="150px" height="150px" viewBox="-512 -512 2048.00 2048.00" class="icon" version="1.1" xmlns="http://www.w3.org/2000/svg" fill="#000000">

<g id="SVGRepo_bgCarrier" stroke-width="0">

<path transform="translate(-512, -512), scale(128)" fill="var(--theme-color)" d="M9.166.33a2.25 2.25 0 00-2.332 0l-5.25 3.182A2.25 2.25 0 00.5 5.436v5.128a2.25 2.25 0 001.084 1.924l5.25 3.182a2.25 2.25 0 002.332 0l5.25-3.182a2.25 2.25 0 001.084-1.924V5.436a2.25 2.25 0 00-1.084-1.924L9.166.33z" strokewidth="0"/>

</g>

<g id="SVGRepo_tracerCarrier" stroke-linecap="round" stroke-linejoin="round"/>

<g id="SVGRepo_iconCarrier">

<path d="M182.88 146.2h585.14v365.71h73.14V73.06H109.74v877.71h402.28v-73.14H182.88z" fill="#FFFFFF"/>

<path d="M256.01 219.34h438.86v73.14H256.01zM256.01 365.63h365.71v73.14H256.01zM256.01 511.91h219.43v73.14H256.01zM731.44 545.76L548.59 646.33v201.14l182.86 100.57L914.3 847.47V646.33L731.44 545.76z m109.72 258.46l-109.71 60.34-109.71-60.34V689.58l109.71-60.34 109.71 60.34v114.64z" fill="#FFFFFF"/>

<path d="M731.44 746.9m-36.57 0a36.57 36.57 0 1 0 73.14 0 36.57 36.57 0 1 0-73.14 0Z" fill="#FFFFFF"/>

</g>

</svg>
