<!DOCTYPE svg PUBLIC "-//W3C//DTD SVG 1.1//EN" "http://www.w3.org/Graphics/SVG/1.1/DTD/svg11.dtd">

<!-- Uploaded to: SVG Repo, www.svgrepo.com, Transformed by: SVG Repo Mixer Tools -->
<svg width="150px" height="150px" viewBox="-512 -512 2048.00 2048.00" class="icon" version="1.1" xmlns="http://www.w3.org/2000/svg" fill="#FFFFFF">

<g id="SVGRepo_bgCarrier" stroke-width="0">

<path transform="translate(-512, -512), scale(128)" fill="var(--theme-color)" d="M9.166.33a2.25 2.25 0 00-2.332 0l-5.25 3.182A2.25 2.25 0 00.5 5.436v5.128a2.25 2.25 0 001.084 1.924l5.25 3.182a2.25 2.25 0 002.332 0l5.25-3.182a2.25 2.25 0 001.084-1.924V5.436a2.25 2.25 0 00-1.084-1.924L9.166.33z" strokewidth="0"/>

</g>

<g id="SVGRepo_tracerCarrier" stroke-linecap="round" stroke-linejoin="round"/>

<g id="SVGRepo_iconCarrier">

<path d="M512 365.7c60.6 0 109.7-49.1 109.7-109.7S572.6 146.3 512 146.3 402.3 195.4 402.3 256 451.4 365.7 512 365.7z m0-146.3c20.2 0 36.6 16.4 36.6 36.6s-16.4 36.6-36.6 36.6-36.6-16.4-36.6-36.6 16.4-36.6 36.6-36.6zM417.4 398.5L384.8 333c-98 48.7-158.9 146.9-158.9 256.3H299c0.1-81.5 45.4-154.6 118.4-190.8zM378.9 755.5l-45.8 57.1c50.5 40.5 114 62.8 178.8 62.8s128.3-22.3 178.8-62.8l-45.8-57.1c-76 61.1-189.8 61.1-266 0zM724.9 589.3H798c0-109.4-60.9-207.6-158.9-256.3l-32.5 65.5c73 36.2 118.3 109.3 118.3 190.8zM219.4 621.7c-60.6 0-109.7 49.1-109.7 109.7s49.1 109.7 109.7 109.7S329.1 792 329.1 731.4 280 621.7 219.4 621.7z m0 146.3c-20.2 0-36.6-16.4-36.6-36.6 0-20.2 16.4-36.6 36.6-36.6 20.2 0 36.6 16.4 36.6 36.6 0 20.2-16.4 36.6-36.6 36.6zM804.6 621.7c-60.6 0-109.7 49.1-109.7 109.7S744 841.1 804.6 841.1 914.3 792 914.3 731.4s-49.1-109.7-109.7-109.7z m0 146.3c-20.2 0-36.6-16.4-36.6-36.6 0-20.2 16.4-36.6 36.6-36.6s36.6 16.4 36.6 36.6c-0.1 20.2-16.5 36.6-36.6 36.6z" fill="#FFFFFF"/>

</g>

</svg>
