<!DOCTYPE svg PUBLIC "-//W3C//DTD SVG 1.1//EN" "http://www.w3.org/Graphics/SVG/1.1/DTD/svg11.dtd">

<!-- Uploaded to: SVG Repo, www.svgrepo.com, Transformed by: SVG Repo Mixer Tools -->
<svg width="150px" height="150px" viewBox="-512 -512 2048.00 2048.00" class="icon" version="1.1" xmlns="http://www.w3.org/2000/svg" fill="#000000">

<g id="SVGRepo_bgCarrier" stroke-width="0">

<path transform="translate(-512, -512), scale(128)" fill="var(--theme-color)" d="M9.166.33a2.25 2.25 0 00-2.332 0l-5.25 3.182A2.25 2.25 0 00.5 5.436v5.128a2.25 2.25 0 001.084 1.924l5.25 3.182a2.25 2.25 0 002.332 0l5.25-3.182a2.25 2.25 0 001.084-1.924V5.436a2.25 2.25 0 00-1.084-1.924L9.166.33z" strokewidth="0"/>

</g>

<g id="SVGRepo_tracerCarrier" stroke-linecap="round" stroke-linejoin="round"/>

<g id="SVGRepo_iconCarrier">

<path d="M292.6 513m-54.9 0a54.9 54.9 0 1 0 109.8 0 54.9 54.9 0 1 0-109.8 0Z" fill="#FFFFFF"/>

<path d="M512 513m-54.9 0a54.9 54.9 0 1 0 109.8 0 54.9 54.9 0 1 0-109.8 0Z" fill="#FFFFFF"/>

<path d="M731.4 513m-54.9 0a54.9 54.9 0 1 0 109.8 0 54.9 54.9 0 1 0-109.8 0Z" fill="#FFFFFF"/>

</g>

</svg>
