<!DOCTYPE svg PUBLIC "-//W3C//DTD SVG 1.1//EN" "http://www.w3.org/Graphics/SVG/1.1/DTD/svg11.dtd">

<!-- Uploaded to: SVG Repo, www.svgrepo.com, Transformed by: SVG Repo Mixer Tools -->
<svg width="150px" height="150px" viewBox="-512 -512 2048.00 2048.00" class="icon" version="1.1" xmlns="http://www.w3.org/2000/svg" fill="#ffffff" stroke="#ffffff">

<g id="SVGRepo_bgCarrier" stroke-width="0">

<path transform="translate(-512, -512), scale(128)" fill="var(--theme-color)" d="M9.166.33a2.25 2.25 0 00-2.332 0l-5.25 3.182A2.25 2.25 0 00.5 5.436v5.128a2.25 2.25 0 001.084 1.924l5.25 3.182a2.25 2.25 0 002.332 0l5.25-3.182a2.25 2.25 0 001.084-1.924V5.436a2.25 2.25 0 00-1.084-1.924L9.166.33z" strokewidth="0"/>

</g>

<g id="SVGRepo_tracerCarrier" stroke-linecap="round" stroke-linejoin="round"/>

<g id="SVGRepo_iconCarrier">

<path d="M511.9 183c-181.8 0-329.1 147.4-329.1 329.1s147.4 329.1 329.1 329.1c181.8 0 329.1-147.4 329.1-329.1S693.6 183 511.9 183z m0 585.2c-141.2 0-256-114.8-256-256s114.8-256 256-256 256 114.8 256 256-114.9 256-256 256z" fill="#ffffff"/>

<path d="M548.6 365.7h-73.2v161.4l120.5 120.5 51.7-51.7-99-99z" fill="#ffffff"/>

</g>

</svg>
