<!DOCTYPE svg PUBLIC "-//W3C//DTD SVG 1.1//EN" "http://www.w3.org/Graphics/SVG/1.1/DTD/svg11.dtd">

<!-- Uploaded to: SVG Repo, www.svgrepo.com, Transformed by: SVG Repo Mixer Tools -->
<svg width="150px" height="150px" viewBox="-12 -12 48.00 48.00" fill="none" xmlns="http://www.w3.org/2000/svg" stroke="#ffffff">

<g id="SVGRepo_bgCarrier" stroke-width="0">

<path transform="translate(-12, -12), scale(3)" fill="var(--theme-color)" d="M9.166.33a2.25 2.25 0 00-2.332 0l-5.25 3.182A2.25 2.25 0 00.5 5.436v5.128a2.25 2.25 0 001.084 1.924l5.25 3.182a2.25 2.25 0 002.332 0l5.25-3.182a2.25 2.25 0 001.084-1.924V5.436a2.25 2.25 0 00-1.084-1.924L9.166.33z" strokewidth="0"/>

</g>

<g id="SVGRepo_tracerCarrier" stroke-linecap="round" stroke-linejoin="round"/>

<g id="SVGRepo_iconCarrier"> <path d="M22 12C22 16.714 22 19.0711 20.5355 20.5355C19.0711 22 16.714 22 12 22C7.28595 22 4.92893 22 3.46447 20.5355C2 19.0711 2 16.714 2 12C2 7.28595 2 4.92893 3.46447 3.46447C4.92893 2 7.28595 2 12 2" stroke="#ffffff" stroke-width="1.5" stroke-linecap="round"/> <path d="M16.1549 3.43415L18.5122 5.47712C20.1349 6.88345 20.9462 7.58662 20.9462 8.49988C20.9462 9.41314 20.1349 10.1163 18.5122 11.5226L16.1549 13.5656C15.4414 14.184 15.0846 14.4932 14.7923 14.3597C14.5 14.2262 14.5 13.7541 14.5 12.8099V11.2856C11.5 11.2856 8.25 12.6785 7 14.9999C7 7.57131 11.4444 5.71416 14.5 5.71416V4.18984C14.5 3.24562 14.5 2.77351 14.7923 2.64003C15.0846 2.50656 15.4414 2.81575 16.1549 3.43415Z" stroke="#ffffff" stroke-width="1.5" stroke-linecap="round" stroke-linejoin="round"/> </g>

</svg>
