<!DOCTYPE svg PUBLIC "-//W3C//DTD SVG 1.1//EN" "http://www.w3.org/Graphics/SVG/1.1/DTD/svg11.dtd">

<!-- Uploaded to: SVG Repo, www.svgrepo.com, Transformed by: SVG Repo Mixer Tools -->
<svg width="150px" height="150px" viewBox="-12 -12 48.00 48.00" fill="none" xmlns="http://www.w3.org/2000/svg" stroke="#000000">

<g id="SVGRepo_bgCarrier" stroke-width="0">

<path transform="translate(-12, -12), scale(3)" fill="var(--theme-color)" d="M9.166.33a2.25 2.25 0 00-2.332 0l-5.25 3.182A2.25 2.25 0 00.5 5.436v5.128a2.25 2.25 0 001.084 1.924l5.25 3.182a2.25 2.25 0 002.332 0l5.25-3.182a2.25 2.25 0 001.084-1.924V5.436a2.25 2.25 0 00-1.084-1.924L9.166.33z" strokewidth="0"/>

</g>

<g id="SVGRepo_tracerCarrier" stroke-linecap="round" stroke-linejoin="round"/>

<g id="SVGRepo_iconCarrier"> <path d="M5 12.0002C5 10.694 4.16519 9.58273 3 9.1709V7.6C3 7.03995 3 6.75992 3.10899 6.54601C3.20487 6.35785 3.35785 6.20487 3.54601 6.10899C3.75992 6 4.03995 6 4.6 6H19.4C19.9601 6 20.2401 6 20.454 6.10899C20.6422 6.20487 20.7951 6.35785 20.891 6.54601C21 6.75992 21 7.03995 21 7.6V9.17071C19.8348 9.58254 19 10.694 19 12.0002C19 13.3064 19.8348 14.4175 21 14.8293V16.4C21 16.9601 21 17.2401 20.891 17.454C20.7951 17.6422 20.6422 17.7951 20.454 17.891C20.2401 18 19.9601 18 19.4 18H4.6C4.03995 18 3.75992 18 3.54601 17.891C3.35785 17.7951 3.20487 17.6422 3.10899 17.454C3 17.2401 3 16.9601 3 16.4V14.8295C4.16519 14.4177 5 13.3064 5 12.0002Z" stroke="#ffffff" stroke-width="2" stroke-linecap="round" stroke-linejoin="round"/> </g>

</svg>
