<svg viewBox="-25.6 -25.6 115.20 115.20" id="fill" xmlns="http://www.w3.org/2000/svg" fill="#000000"><g id="SVGRepo_bgCarrier" stroke-width="0"><path transform="translate(-25.6, -25.6), scale(7.2)" fill="var(--theme-color)" d="M9.166.33a2.25 2.25 0 00-2.332 0l-5.25 3.182A2.25 2.25 0 00.5 5.436v5.128a2.25 2.25 0 001.084 1.924l5.25 3.182a2.25 2.25 0 002.332 0l5.25-3.182a2.25 2.25 0 001.084-1.924V5.436a2.25 2.25 0 00-1.084-1.924L9.166.33z" strokewidth="0"></path></g><g id="SVGRepo_tracerCarrier" stroke-linecap="round" stroke-linejoin="round"></g><g id="SVGRepo_iconCarrier"><rect height="54" style="fill:#cfcfd9" width="14" x="44" y="5"></rect><polygon points="50 61 6 61 6 3 42 3 50 11 50 61" style="fill:#e5e6eb"></polygon><path d="M48,9V23.743A35.257,35.257,0,0,1,12.743,59H6v2H50V11Z" style="fill:#d9dae2"></path><circle cx="22" cy="18" r="9" style="fill:#fff"></circle><circle cx="22" cy="46" r="9" style="fill:#fff"></circle><path d="M23.972,17H20.028A2.028,2.028,0,0,0,18,19.028v7.025a8.921,8.921,0,0,0,8,0V19.028A2.028,2.028,0,0,0,23.972,17Z" style="fill:#027de5"></path><circle cx="22" cy="14" r="3" style="fill:#027de5"></circle><rect height="2" style="fill:#444" width="4" x="33" y="14"></rect><rect height="2" style="fill:#444" width="2" x="39" y="14"></rect><rect height="2" style="fill:#444" width="9" x="33" y="18"></rect><rect height="2" style="fill:#444" width="11" x="33" y="22"></rect><path d="M23.972,45H20.028A2.028,2.028,0,0,0,18,47.028v7.025a8.921,8.921,0,0,0,8,0V47.028A2.028,2.028,0,0,0,23.972,45Z" style="fill:#027de5"></path><circle cx="22" cy="42" r="3" style="fill:#027de5"></circle><rect height="2" style="fill:#444" width="4" x="33" y="42"></rect><rect height="2" style="fill:#444" width="2" x="39" y="42"></rect><rect height="2" style="fill:#444" width="9" x="33" y="46"></rect><rect height="2" style="fill:#444" width="11" x="33" y="50"></rect><polygon points="50 11 42 11 42 3 50 11" style="fill:#cceaff"></polygon><path d="M58,4H44.414L42.707,2.293A1,1,0,0,0,42,2H6A1,1,0,0,0,5,3V61a1,1,0,0,0,1,1H50a1,1,0,0,0,1-1V60h7a1,1,0,0,0,1-1V5A1,1,0,0,0,58,4ZM43,5.414,47.586,10H43ZM7,60V4H41v7a1,1,0,0,0,1,1h7V60Zm50-2H51V11a1,1,0,0,0-.293-.707L46.414,6H57Z"></path></g></svg>
