<svg width="75" height="75" viewBox="0 0 75 75" fill="none" xmlns="http://www.w3.org/2000/svg">
  <path opacity="0.3" d="M4.6875 44.2188L25.1562 32.5L68.75 54.375L46.875 65.3125L4.6875 44.2188Z" fill="black"/>
  <path d="M8.28125 39.0625V45L12.1875 42.9688V37.1875L8.28125 39.0625Z" fill="#2D3134"/>
  <path opacity="0.39" d="M8.28125 39.0625V45L12.1875 42.9688V37.1875L8.28125 39.0625Z" fill="black"/>
  <path d="M40.9375 51.4062C39.8438 50.7812 38.75 50.7812 37.9687 51.0937L35.7812 52.1874C34.8437 52.4999 34.375 53.4374 34.375 54.6874C34.375 57.0312 36.4062 59.9999 38.75 61.2499C40 61.8749 41.0937 61.8749 41.875 61.5624C41.875 61.5624 44.0625 60.4687 44.2187 60.3124C45 59.8437 45.3125 59.0624 45.3125 57.9687C45.3125 55.4687 43.2813 52.4999 40.9375 51.4062Z" fill="#2D3134"/>
  <path opacity="0.39" d="M41.875 61.4062C42.1875 61.25 44.0625 60.3125 44.2188 60.3125C45 59.8437 45.3125 59.0625 45.3125 57.9687C45.3125 57.0312 45 55.9375 44.5313 55L42.3438 56.0938C42.8125 57.0313 43.125 58.125 43.125 59.0625C43.125 60.1562 42.6562 61.0937 41.875 61.4062Z" fill="black"/>
  <path d="M42.0312 58.4376C42.0312 60.3126 40.625 60.9376 38.75 60.0001C36.875 59.0626 35.4688 56.8751 35.4688 55.0001C35.4688 53.1251 36.875 52.5001 38.75 53.4376C40.625 54.3751 42.0312 56.5626 42.0312 58.4376Z" fill="#999999"/>
  <path opacity="0.15" d="M39.0625 60C37.1875 59.0625 35.7812 56.875 35.7812 55C35.7812 54.0625 36.0937 53.4375 36.7187 53.125C35.9375 53.2812 35.4688 54.0625 35.4688 55C35.4688 56.875 36.875 59.0625 38.75 60C39.6875 60.4688 40.4687 60.4688 41.0937 60.1562C40.4687 60.4688 39.8437 60.3125 39.0625 60Z" fill="black"/>
  <path d="M40.4687 57.3438C40.4687 58.125 39.8437 58.4375 39.0625 57.9688C38.2812 57.5 37.6562 56.7188 37.6562 55.9375C37.6562 55.1563 38.2812 54.8438 39.0625 55.3125C39.8437 55.7813 40.4687 56.5625 40.4687 57.3438Z" fill="#2D3134"/>
  <path opacity="0.39" d="M40.4687 57.3438C40.4687 58.125 39.8437 58.4375 39.0625 57.9688C38.2812 57.5 37.6562 56.7188 37.6562 55.9375C37.6562 55.1563 38.2812 54.8438 39.0625 55.3125C39.8437 55.7813 40.4687 56.5625 40.4687 57.3438Z" fill="black"/>
  <path d="M40.1563 57.5C40.1563 58.2813 39.5312 58.5938 38.75 58.125C37.9687 57.8125 37.3438 56.875 37.3438 56.0938C37.3438 55.3125 37.9687 55 38.75 55.4688C39.5312 55.7813 40.1563 56.7188 40.1563 57.5Z" fill="#2D3134"/>
  <path opacity="0.06" d="M43.125 59.0625C43.125 61.4063 41.0937 62.5 38.75 61.25C36.4062 60 34.375 57.0313 34.375 54.6875C34.375 52.3438 36.4062 51.25 38.75 52.5C41.0937 53.5938 43.125 56.5625 43.125 59.0625Z" fill="black"/>
  <path d="M15.1562 38.4374C14.0625 37.8124 12.9688 37.8124 12.1875 38.1249L10 39.2187C9.21875 39.5312 8.59375 40.4687 8.59375 41.7187C8.59375 44.0624 10.625 47.0312 12.9688 48.2812C14.2188 48.9062 15.3125 48.9062 16.0938 48.5937C16.0938 48.5937 18.2812 47.4999 18.4375 47.3437C19.2188 46.8749 19.5312 46.0937 19.5312 44.9999C19.5312 42.6562 17.5 39.6874 15.1562 38.4374Z" fill="#2D3134"/>
  <path opacity="0.39" d="M16.0938 48.5938C16.4062 48.4375 18.2812 47.5 18.4375 47.5C19.2188 47.0312 19.5312 46.25 19.5312 45.1562C19.5312 44.2187 19.2187 43.125 18.75 42.1875L16.5625 43.2813C17.0313 44.2188 17.3438 45.3125 17.3438 46.25C17.3438 47.3438 16.875 48.125 16.0938 48.5938Z" fill="black"/>
  <path d="M16.25 45.6251C16.25 47.5001 14.8438 48.1251 12.9688 47.1876C11.0938 46.2501 9.6875 44.0626 9.6875 42.1876C9.6875 40.3126 11.0938 39.6876 12.9688 40.6251C14.8438 41.5626 16.25 43.7501 16.25 45.6251Z" fill="#999999"/>
  <path opacity="0.15" d="M13.2813 47.0312C11.4063 46.0937 10 43.9062 10 42.0312C10 41.0937 10.3125 40.4688 10.9375 40.1562C10.1563 40.3125 9.6875 41.0937 9.6875 42.0312C9.6875 43.9062 11.0938 46.0937 12.9688 47.0312C13.9063 47.5 14.6875 47.5 15.3125 47.1875C14.6875 47.5 14.0625 47.5 13.2813 47.0312Z" fill="black"/>
  <path d="M14.6875 44.5313C14.6875 45.3125 14.0625 45.625 13.2813 45.1563C12.5 44.8438 11.875 43.9063 11.875 43.125C11.875 42.3438 12.5 42.0313 13.2813 42.5C14.0625 42.8125 14.6875 43.75 14.6875 44.5313Z" fill="#2D3134"/>
  <path opacity="0.39" d="M14.6875 44.5313C14.6875 45.3125 14.0625 45.625 13.2813 45.1563C12.5 44.8438 11.875 43.9063 11.875 43.125C11.875 42.3438 12.5 42.0313 13.2813 42.5C14.0625 42.8125 14.6875 43.75 14.6875 44.5313Z" fill="black"/>
  <path d="M14.375 44.5313C14.375 45.3125 13.75 45.625 12.9688 45.1563C12.1875 44.6875 11.5625 43.9063 11.5625 43.125C11.5625 42.3438 12.1875 42.0313 12.9688 42.5C13.75 42.9688 14.375 43.9063 14.375 44.5313Z" fill="#2D3134"/>
  <path opacity="0.06" d="M17.3438 46.0938C17.3438 48.4375 15.3125 49.5313 12.9688 48.2813C10.625 47.0313 8.59375 44.0625 8.59375 41.7188C8.59375 39.375 10.625 38.2813 12.9688 39.5313C15.3125 40.7813 17.3438 43.75 17.3438 46.0938Z" fill="black"/>
  <path d="M26.5625 1.5625L4.6875 12.5V36.4062L32.8125 50.4688L54.6875 39.0625V15.625L26.5625 1.5625Z" fill="#F56F21"/>
  <path d="M4.6875 34.375V37.5L32.8125 51.5625V48.4375L4.6875 34.375ZM54.6875 37.5V40.625L32.8125 51.5625V48.4375L54.6875 37.5Z" fill="#2D3134"/>
  <path opacity="0.06" d="M4.6875 12.5V37.5L32.8125 51.5625V26.5625L4.6875 12.5Z" fill="#F56F21"/>
  <path opacity="0.39" d="M54.6875 15.625V40.625L32.8125 51.5625V26.5625L54.6875 15.625Z" fill="black"/>
  <path d="M65.625 28.125L56.25 23.4375L34.375 34.375V52.0312C34.375 52.5 35 52.8125 35.4688 52.5C37.3438 50.9375 40.625 52.0312 42.9688 54.8437C44.375 56.5625 45 58.4375 45 60L46.875 60.9375L68.75 50V37.5L65.625 28.125Z" fill="#FFD1B6"/>
  <path d="M47.5 47.6563L44.8438 39.8438C44.6875 39.5313 44.8438 39.375 45.1563 39.2188L64.6875 29.5313C65 29.375 65.3125 29.5313 65.4688 29.8438L67.9688 37.1875C68.125 37.5 67.9688 37.6563 67.6563 37.8125L48.2813 47.9688C47.9688 48.125 47.5 47.9688 47.5 47.6563Z" fill="#3399CC"/>
  <path opacity="0.15" d="M51.0938 36.25L64.5312 29.5313C64.8437 29.375 65.1562 29.5313 65.3125 29.8438L67.6562 36.7188L51.0938 36.25Z" fill="black"/>
  <path d="M67.8125 37.1875L67.6562 36.7188C67.6562 37.0313 67.6562 37.1875 67.3437 37.3437L47.9688 47.5C47.6562 47.6562 47.3438 47.5 47.1875 47.1875L47.3437 47.6563C47.5 47.9688 47.8125 48.125 48.125 47.9688L67.5 37.8125C67.8125 37.6563 67.9688 37.5 67.8125 37.1875Z" fill="#2D3134"/>
  <path d="M52.3438 46.875L63.2812 41.4062V50.4687L52.3438 55.9375V46.875Z" fill="white"/>
  <path d="M53.125 54.6875L62.5 50V42.6562L53.125 47.3438V54.6875Z" fill="#2D3134"/>
  <path d="M68.75 50V46.875L46.875 57.8125V60.9375L68.75 50ZM43.75 59.375L46.875 60.9375V57.8125L43.75 56.25V59.375Z" fill="#2D3134"/>
  <path d="M53.125 54.6875V56.25L62.5 51.5625V50L53.125 54.6875Z" fill="white"/>
  <path d="M42.9688 39.5313L37.0313 36.5625C36.875 36.4063 36.5625 36.5625 36.5625 36.875V41.5625C36.5625 41.875 36.7188 42.1875 37.0313 42.1875L39.0625 43.2813C39.2188 43.4375 39.375 43.4375 39.5312 43.5938L41.5625 46.0938H41.7188L45.1562 47.8125C45.3125 47.9688 45.625 47.6563 45.4688 47.5L42.8125 39.6875C43.125 39.6875 43.125 39.5313 42.9688 39.5313Z" fill="#3399CC"/>
  <path opacity="0.15" d="M45.7812 47.3438L42.6562 45.7813H42.5L40.4687 43.2813C40.3125 43.125 40.1563 42.9688 40 42.9688L37.9687 41.875C37.6562 41.7188 37.5 41.5625 37.5 41.25V36.7188L37.1875 36.5625C37.0312 36.4063 36.7188 36.5625 36.7188 36.875V41.5625C36.7188 41.875 36.875 42.1875 37.1875 42.1875L39.2188 43.2813C39.375 43.4375 39.5312 43.4375 39.6875 43.5938L41.7188 46.0938H41.875L45.3125 47.8125C45.625 47.9688 45.7812 47.8125 45.7812 47.3438Z" fill="black"/>
  <path d="M46.875 54.6875V57.8125L46.0938 57.5V54.375L46.875 54.6875Z" fill="#FFCC00"/>
  <path d="M53.125 48.4375V48.9062L62.5 44.2187V43.75L53.125 48.4375ZM53.125 50V50.4687L62.5 45.7812V45.3125L53.125 50ZM53.125 51.5625V52.0312L62.5 47.3437V46.875L53.125 51.5625ZM53.125 53.125V53.5937L62.5 48.9062V48.4375L53.125 53.125Z" fill="#E5E5E5"/>
  <path opacity="0.5" d="M36.7188 44.2188V45L38.2812 45.7812V45L36.7188 44.2188Z" fill="#2D3134"/>
  <path opacity="0.5" d="M38.2812 46.0938L36.7188 45.3125V45L38.2812 45.7812V46.0938Z" fill="white"/>
  <path d="M58.5937 37.3438C58.4375 37.1875 58.2812 37.1875 58.125 37.3438L52.1875 44.0625C52.0313 44.2188 52.0313 44.375 52.1875 44.5312C52.3438 44.6875 52.5 44.6875 52.6562 44.5312L54.2187 42.6562V44.2187H54.6875V42.1875L58.5937 37.6563C58.75 37.6563 58.75 37.3438 58.5937 37.3438ZM64.2187 34.2188C64.0625 34.0625 63.9062 34.0625 63.75 34.2188L57.8125 40.9375C57.6562 41.0938 57.6562 41.25 57.8125 41.4063C57.9687 41.5625 58.125 41.5625 58.2812 41.4063L59.6875 39.8438V41.5625H60.1562V39.375L64.2187 34.6875C64.375 34.5313 64.375 34.375 64.2187 34.2188Z" fill="#2D3134"/>
  <path d="M65.625 48.4375L68.75 46.875V43.75L67.1875 44.5312C66.25 45 65.625 45.9375 65.625 47.0313V48.4375Z" fill="white"/>
  <path opacity="0.3" d="M66.2058 45.6952C65.77 46.2307 65.6879 46.8855 66.0226 47.1579C66.3572 47.4303 66.9818 47.217 67.4176 46.6816C67.8534 46.1462 67.9354 45.4914 67.6008 45.219C67.2661 44.9466 66.6416 45.1598 66.2058 45.6952Z" fill="#2D3134"/>
  <path opacity="0.3" d="M66.9875 45.695C66.5517 46.2304 66.4697 46.8853 66.8043 47.1576C67.139 47.43 67.7635 47.2168 68.1993 46.6814C68.6351 46.146 68.7171 45.4911 68.3825 45.2187C68.0479 44.9464 67.4233 45.1596 66.9875 45.695Z" fill="#2D3134"/>
  <path opacity="0.3" d="M65.625 48.4375L68.75 46.875V43.75L65.625 48.4375Z" fill="white"/>
  <path d="M46.875 57.8125L50 56.25V54.8437C50 54.0625 49.2188 53.5937 48.4375 53.9062L46.875 54.6875V57.8125Z" fill="white"/>
  <path opacity="0.3" d="M48.2382 55.0681C47.8024 55.6035 47.7204 56.2583 48.055 56.5307C48.3897 56.8031 49.0142 56.5898 49.45 56.0544C49.8858 55.519 49.9679 54.8642 49.6332 54.5918C49.2986 54.3194 48.674 54.5326 48.2382 55.0681Z" fill="#2D3134"/>
  <path opacity="0.3" d="M47.4565 55.0683C47.0207 55.6037 46.9387 56.2586 47.2733 56.5309C47.6079 56.8033 48.2325 56.5901 48.6683 56.0547C49.1041 55.5192 49.1861 54.8644 48.8515 54.592C48.5169 54.3196 47.8923 54.5329 47.4565 55.0683Z" fill="#2D3134"/>
  <path opacity="0.3" d="M46.875 57.8125L50 56.25L46.875 54.6875V57.8125Z" fill="white"/>
  <path opacity="0.06" d="M43.75 39.0625L34.375 34.375V52.0312C34.375 52.5 35 52.8125 35.4688 52.5C37.3438 50.9375 40.625 52.0312 42.9688 54.8437C43.4375 55.3125 43.75 55.7812 43.9063 56.4062L43.75 56.25V59.375L46.875 60.9375V48.4375L43.75 39.0625Z" fill="black"/>
  <path opacity="0.3" d="M65.625 28.125L43.75 39.0625L46.875 48.4375V60.9375L68.75 50V37.5L65.625 28.125Z" fill="black"/>
</svg>
