<svg version="1.2" xmlns="http://www.w3.org/2000/svg" viewBox="0 0 270 270" width="270" height="270">
	<title>Transportation-svg</title>
	<style>
		.s0 { fill: none;stroke: #ff0000;stroke-miterlimit:100;stroke-width: 22.7 } 
		.s1 { opacity: .3;fill: #000000 } 
		.s2 { fill: #2d3134 } 
		.s3 { opacity: .4;fill: #000000 } 
		.s4 { fill: #999999 } 
		.s5 { opacity: .1;fill: #000000 } 
		.s6 { fill: #f56f21 } 
		.s7 { opacity: .1;fill: #f56f21 } 
		.s8 { fill: #ffd1b6 } 
		.s9 { fill: #3399cc } 
		.s10 { fill: #ffffff } 
		.s11 { fill: #ffcc00 } 
		.s12 { fill: #e5e5e5 } 
		.s13 { opacity: .5;fill: #2d3134 } 
		.s14 { opacity: .5;fill: #ffffff } 
		.s15 { opacity: .3;fill: #2d3134 } 
		.s16 { opacity: .3;fill: #ffffff } 
	</style>
	<path id="Hình dạng 1" class="s0" d="m132.7 248.6c-62.8 0-113.6-50.8-113.6-113.6 0-62.8 50.8-113.6 113.6-113.6 62.9 0 113.7 50.8 113.7 113.6 0 62.8-50.8 113.6-113.7 113.6z"/>
	<path class="s1" d="m61.6 162.8l46.5-26.7 99.1 49.8-49.8 24.8z"/>
	<path class="s2" d="m69.7 151.1v13.4l8.9-4.6v-13.1z"/>
	<path class="s3" d="m69.7 151.1v13.4l8.9-4.6v-13.1z"/>
	<path class="s2" d="m143.9 179.1c-2.4-1.4-4.9-1.4-6.7-0.7l-5 2.5c-2.1 0.7-3.2 2.8-3.2 5.7 0 5.3 4.7 12 10 14.9 2.8 1.4 5.3 1.4 7.1 0.7 0 0 5-2.5 5.3-2.9 1.8-1 2.5-2.8 2.5-5.3 0-5.7-4.6-12.4-10-14.9z"/>
	<path class="s3" d="m146.1 201.8c0.7-0.3 5-2.5 5.3-2.5 1.8-1 2.5-2.8 2.5-5.3 0-2.1-0.7-4.6-1.8-6.7l-5 2.5c1.1 2.1 1.8 4.6 1.8 6.7 0 2.5-1 4.6-2.8 5.3z"/>
	<path class="s4" d="m146.4 195.1c0 4.2-3.2 5.7-7.4 3.5-4.3-2.1-7.5-7.1-7.5-11.3 0-4.3 3.2-5.7 7.5-3.6 4.2 2.2 7.4 7.1 7.4 11.4z"/>
	<path class="s5" d="m139.7 198.6c-4.3-2.1-7.5-7.1-7.5-11.3q0-3.2 2.2-4.3c-1.8 0.4-2.9 2.1-2.9 4.3 0 4.2 3.2 9.2 7.5 11.3 2.1 1.1 3.9 1.1 5.3 0.4-1.4 0.7-2.8 0.3-4.6-0.4z"/>
	<path class="s2" d="m142.9 192.6c0 1.8-1.4 2.5-3.2 1.4-1.8-1-3.2-2.8-3.2-4.6 0-1.8 1.4-2.5 3.2-1.4 1.8 1 3.2 2.8 3.2 4.6z"/>
	<path class="s3" d="m142.9 192.6c0 1.8-1.4 2.5-3.2 1.4-1.8-1-3.2-2.8-3.2-4.6 0-1.8 1.4-2.5 3.2-1.4 1.8 1 3.2 2.8 3.2 4.6z"/>
	<path class="s2" d="m142.2 193c0 1.7-1.4 2.4-3.2 1.4-1.8-0.7-3.2-2.9-3.2-4.6 0-1.8 1.4-2.5 3.2-1.5 1.8 0.7 3.2 2.9 3.2 4.7z"/>
	<path class="s5" d="m148.9 196.5c0 5.3-4.6 7.8-9.9 5-5.3-2.9-10-9.6-10-14.9 0-5.4 4.7-7.9 10-5 5.3 2.5 9.9 9.2 9.9 14.9z"/>
	<path class="s2" d="m85.4 149.6c-2.5-1.4-5-1.4-6.8-0.7l-5 2.5c-1.7 0.7-3.2 2.8-3.2 5.7 0 5.3 4.7 12.1 10 14.9 2.8 1.4 5.3 1.4 7.1 0.7 0 0 5-2.5 5.3-2.8 1.8-1.1 2.5-2.9 2.5-5.4 0-5.3-4.6-12-9.9-14.9z"/>
	<path class="s3" d="m87.5 172.7c0.7-0.3 5-2.5 5.3-2.5 1.8-1 2.5-2.8 2.5-5.3 0-2.1-0.7-4.6-1.8-6.7l-4.9 2.4c1 2.2 1.7 4.7 1.7 6.8 0 2.5-1 4.2-2.8 5.3z"/>
	<path class="s4" d="m87.8 166c0 4.2-3.2 5.6-7.4 3.5-4.3-2.1-7.5-7.1-7.5-11.3 0-4.3 3.2-5.7 7.5-3.6 4.2 2.1 7.4 7.1 7.4 11.4z"/>
	<path class="s5" d="m81.1 169.2c-4.3-2.2-7.5-7.1-7.5-11.4q0-3.2 2.2-4.3c-1.8 0.4-2.9 2.2-2.9 4.3 0 4.3 3.2 9.2 7.5 11.4 2.1 1 3.9 1 5.3 0.3-1.4 0.7-2.8 0.7-4.6-0.3z"/>
	<path class="s2" d="m84.3 163.5c0 1.8-1.4 2.5-3.2 1.4-1.8-0.7-3.2-2.8-3.2-4.6 0-1.8 1.4-2.5 3.2-1.4 1.8 0.7 3.2 2.8 3.2 4.6z"/>
	<path class="s3" d="m84.3 163.5c0 1.8-1.4 2.5-3.2 1.4-1.8-0.7-3.2-2.8-3.2-4.6 0-1.8 1.4-2.5 3.2-1.4 1.8 0.7 3.2 2.8 3.2 4.6z"/>
	<path class="s2" d="m83.6 163.5c0 1.8-1.4 2.5-3.2 1.4-1.8-1.1-3.2-2.8-3.2-4.6 0-1.8 1.4-2.5 3.2-1.4 1.8 1 3.2 3.2 3.2 4.6z"/>
	<path class="s5" d="m90.3 167c0 5.4-4.6 7.8-9.9 5-5.3-2.8-10-9.6-10-14.9 0-5.3 4.7-7.8 10-5 5.3 2.9 9.9 9.6 9.9 14.9z"/>
	<path class="s6" d="m111.3 65.8l-49.7 24.9v54.3l63.9 32 49.7-25.9v-53.3z"/>
	<path fill-rule="evenodd" class="s2" d="m61.6 147.5v-7.1l63.9 32v7.1zm113.6 7.1v-7.1l-49.7 24.8v7.1z"/>
	<path class="s7" d="m61.6 90.7v56.8l63.9 32v-56.9z"/>
	<path class="s3" d="m175.2 97.8v56.8l-49.7 24.9v-56.9z"/>
	<path class="s8" d="m200.1 126.2l-21.4-10.7-49.7 24.9v40.1c0 1.1 1.5 1.8 2.5 1.1 4.3-3.6 11.7-1.1 17.1 5.3 3.2 3.9 4.6 8.2 4.6 11.7l4.2 2.2 49.8-24.9v-28.4z"/>
	<path class="s9" d="m158.9 170.6l-6.1-17.8c-0.3-0.7 0-1 0.7-1.4l44.4-22c0.7-0.4 1.4 0 1.8 0.7l5.7 16.7c0.3 0.7 0 1.1-0.7 1.4l-44.1 23.1c-0.7 0.3-1.7 0-1.7-0.7z"/>
	<path class="s5" d="m167 144.7l30.6-15.3c0.7-0.4 1.4 0 1.7 0.7l5.4 15.6z"/>
	<path class="s2" d="m205 146.8l-0.3-1.1c0 0.7 0 1.1-0.7 1.4l-44.1 23.1c-0.7 0.4-1.4 0-1.7-0.7l0.3 1.1c0.4 0.7 1.1 1 1.8 0.7l44-23.1c0.7-0.3 1.1-0.7 0.7-1.4z"/>
	<path class="s10" d="m169.9 168.8l24.8-12.4v20.6l-24.8 12.4z"/>
	<path class="s2" d="m171.6 186.6l21.4-10.7v-16.7l-21.4 10.7z"/>
	<path class="s2" d="m207.2 175.9v-7.1l-49.8 24.9v7.1zm-56.8 21.3l7.1 3.5v-7.1l-7.1-3.5z"/>
	<path class="s10" d="m171.6 186.6v3.5l21.4-10.6v-3.6z"/>
	<path class="s9" d="m148.6 152.1l-13.5-6.7c-0.4-0.4-1.1 0-1.1 0.7v10.6c0 0.7 0.4 1.5 1.1 1.5l4.6 2.4c0.3 0.4 0.7 0.4 1.1 0.7l4.6 5.7h0.3l7.8 3.9c0.4 0.4 1.1-0.3 0.7-0.7l-6-17.7c0.7 0 0.7-0.4 0.4-0.4z"/>
	<path class="s5" d="m155 169.9l-7.1-3.6h-0.4l-4.6-5.7c-0.4-0.3-0.7-0.7-1.1-0.7l-4.6-2.5c-0.7-0.3-1.1-0.7-1.1-1.4v-10.3l-0.7-0.3c-0.3-0.4-1 0-1 0.7v10.6c0 0.7 0.3 1.5 1 1.5l4.6 2.4c0.4 0.4 0.8 0.4 1.1 0.7l4.6 5.7h0.4l7.8 3.9q1.1 0.6 1.1-1z"/>
	<path class="s11" d="m157.4 186.6v7.1l-1.7-0.7v-7.1z"/>
	<path class="s12" d="m171.6 172.4v1l21.4-10.6v-1.1zm0 3.6v1l21.3-10.6v-1.1zm0 3.6v1l21.3-10.6v-1.1zm0 3.6v1l21.3-10.6v-1.1z"/>
	<path class="s13" d="m134.4 162.8v1.7l3.5 1.8v-1.8z"/>
	<path class="s14" d="m137.9 167l-3.5-1.7v-0.8l3.5 1.8z"/>
	<path class="s2" d="m184.1 147.1q-0.6-0.5-1.1 0l-13.5 15.3q-0.5 0.5 0 1.1 0.5 0.5 1.1 0l3.5-4.3v3.6h1.1v-4.6l8.9-10.3c0.3 0 0.3-0.8 0-0.8zm12.8-7.1q-0.6-0.5-1.1 0l-13.5 15.3q-0.5 0.5 0 1.1 0.5 0.5 1.1 0l3.2-3.6v3.9h1v-4.9l9.3-10.7q0.5-0.5 0-1.1z"/>
	<path class="s10" d="m200.1 172.4l7.1-3.6v-7.1l-3.6 1.8c-2.1 1-3.5 3.2-3.5 5.7z"/>
	<path class="s15" d="m201.4 166.1c-1 1.2-1.2 2.7-0.4 3.3 0.7 0.7 2.1 0.2 3.1-1 1-1.2 1.2-2.7 0.4-3.4-0.7-0.6-2.1-0.1-3.1 1.1z"/>
	<path class="s15" d="m203.2 166.1c-1 1.2-1.2 2.7-0.5 3.3 0.8 0.7 2.2 0.2 3.2-1 1-1.2 1.2-2.7 0.4-3.4-0.7-0.6-2.2-0.1-3.1 1.1z"/>
	<path class="s16" d="m200.1 172.4l7.1-3.6v-7.1z"/>
	<path class="s10" d="m157.4 193.7l7.1-3.6v-3.2c0-1.8-1.7-2.8-3.5-2.1l-3.6 1.8z"/>
	<path class="s15" d="m160.5 187.4c-0.9 1.2-1.1 2.7-0.4 3.4 0.8 0.6 2.2 0.1 3.2-1.1 1-1.2 1.2-2.7 0.4-3.4-0.7-0.6-2.2-0.1-3.2 1.1z"/>
	<path class="s15" d="m158.8 187.4c-1 1.2-1.2 2.7-0.5 3.4 0.8 0.6 2.2 0.1 3.2-1.1 1-1.2 1.2-2.7 0.4-3.4-0.7-0.6-2.1-0.1-3.1 1.1z"/>
	<path class="s16" d="m157.4 193.7l7.1-3.6-7.1-3.5z"/>
	<path class="s5" d="m150.3 151.1l-21.3-10.7v40.1c0 1.1 1.5 1.8 2.5 1.1 4.3-3.6 11.7-1.1 17.1 5.3 1 1.1 1.7 2.1 2.1 3.6l-0.4-0.4v7.1l7.1 3.6v-28.4z"/>
	<path class="s1" d="m200.1 126.2l-49.8 24.9 7.1 21.3v28.4l49.8-24.9v-28.4z"/>
</svg>