<svg xmlns="http://www.w3.org/2000/svg" viewBox="0 0 512 512" id="water-meter"><path fill="#ff7d97" d="M206 247.5h100v70a10 10 0 0 1-10 10h-80a10 10 0 0 1-10-10v-70Z"></path><circle cx="256" cy="147.5" r="140" fill="#7dd9c2"></circle><circle cx="256" cy="147.5" r="100" fill="#faf7f5"></circle><ellipse cx="256" cy="217.5" fill="#ffcd69" rx="71.4" ry="30"></ellipse><path fill="#faf7f5" d="M236 327.5h40v50h-40z"></path><rect width="200" height="127" x="156" y="377.5" fill="#7dd9c2" rx="10" ry="10"></rect><path fill="#ffcd69" d="M7.5 401H156v80H7.5zM356 396h148.5v30H356zM356 456h148.5v30H356z"></path><path fill="#faf7f5" d="M196 421h40v40h-40zM276 421h40v40h-40z"></path><path fill="#648599" d="M363.5 147.5a107.12 107.12 0 0 0-30.88-75.32 7.5 7.5 0 0 0-1.3-1.3 107.3 107.3 0 0 0-150.64 0 7.5 7.5 0 0 0-1.3 1.3A107.48 107.48 0 1 0 363.5 147.5Zm-167.93 70a92.46 92.46 0 0 1 120.86 0 92.34 92.34 0 0 1-120.86 0ZM176 140h-12.19a92.05 92.05 0 0 1 21.73-52.36l8.59 8.6a7.5 7.5 0 1 0 10.61-10.61l-8.6-8.63a92.05 92.05 0 0 1 52.36-21.69V67.5a7.5 7.5 0 0 0 15 0V55.31A92.05 92.05 0 0 1 315.86 77l-8.6 8.59a7.5 7.5 0 0 0 10.61 10.61l8.59-8.6a92.05 92.05 0 0 1 21.73 52.4H336a7.5 7.5 0 0 0 0 15h12.19A92.07 92.07 0 0 1 327 206.76a106.35 106.35 0 0 0-63.47-26.5V126a7.5 7.5 0 0 0-15 0v54.26a106.35 106.35 0 0 0-63.53 26.5A92.07 92.07 0 0 1 163.81 155H176a7.5 7.5 0 0 0 0-15Z"></path><path fill="#648599" d="M504.5 433.5a7.5 7.5 0 0 0 7.5-7.5v-30a7.5 7.5 0 0 0-7.5-7.5h-141v-1A17.52 17.52 0 0 0 346 370h-62.5v-35H296a17.52 17.52 0 0 0 17.5-17.5v-34.17a147.73 147.73 0 0 0 90-135.83C403.5 66.17 337.33 0 256 0S108.5 66.17 108.5 147.5a147.73 147.73 0 0 0 90 135.83v34.17A17.52 17.52 0 0 0 216 335h12.5v35H166a17.52 17.52 0 0 0-17.5 17.5v6H7.5A7.5 7.5 0 0 0 0 401v80a7.5 7.5 0 0 0 7.5 7.5h141v6A17.52 17.52 0 0 0 166 512h180a17.52 17.52 0 0 0 17.5-17.5v-1h141a7.5 7.5 0 0 0 7.5-7.5v-30a7.5 7.5 0 0 0-7.5-7.5h-141v-15Zm-7.5-30v15H363.5v-15Zm-373.5-256C123.5 74.44 182.94 15 256 15s132.5 59.44 132.5 132.5S329.06 280 256 280s-132.5-59.44-132.5-132.5Zm90 170v-28.75a147.63 147.63 0 0 0 85 0v28.75a2.5 2.5 0 0 1-2.5 2.5h-80a2.5 2.5 0 0 1-2.5-2.5Zm30 17.5h25v35h-25ZM15 473.5v-65h133.5v65Zm333.5 21a2.5 2.5 0 0 1-2.5 2.5H166a2.5 2.5 0 0 1-2.5-2.5v-107a2.5 2.5 0 0 1 2.5-2.5h180a2.5 2.5 0 0 1 2.5 2.5Zm148.5-31v15H363.5v-15Z"></path><path fill="#648599" d="M236 413.5h-40a7.5 7.5 0 0 0-7.5 7.5v40a7.5 7.5 0 0 0 7.5 7.5h40a7.5 7.5 0 0 0 7.5-7.5v-40a7.5 7.5 0 0 0-7.5-7.5zm-7.5 40h-25v-25h25zm87.5-40h-40a7.5 7.5 0 0 0-7.5 7.5v40a7.5 7.5 0 0 0 7.5 7.5h40a7.5 7.5 0 0 0 7.5-7.5v-40a7.5 7.5 0 0 0-7.5-7.5zm-7.5 40h-25v-25h25z"></path></svg>